<svg width="55" height="55" viewBox="0 0 55 55" fill="none" xmlns="http://www.w3.org/2000/svg">
<circle cx="27.5" cy="27.5" r="27.5" fill="#007CED"/>
<path d="M37.0459 31.2153C36.7383 32.7762 36.3452 34.0636 35.8667 35.0776C35.3882 36.0802 34.904 36.8721 34.4141 37.4531C33.9242 38.0342 33.4627 38.4386 33.0298 38.6665C32.6082 38.8944 32.2892 39.0083 32.0728 39.0083C31.731 39.0083 31.2923 38.8602 30.7568 38.564C30.2214 38.2677 29.6289 37.8861 28.9795 37.4189C28.3415 36.9518 27.675 36.4277 26.98 35.8467C26.2964 35.2542 25.6356 34.6675 24.9976 34.0864C24.3595 33.5054 23.7728 32.9585 23.2373 32.4458C22.7018 31.9331 22.2689 31.5116 21.9385 31.1812L22.0752 35.4023L25.6812 37.4019L14.8291 38.1709L18.4692 34.8213L19.1016 17.6289L14.6582 15.4927C16.8799 15.3674 18.7655 15.2762 20.3149 15.2192C21.8644 15.1509 23.1462 15.1053 24.1602 15.0825C25.1742 15.0597 25.9546 15.0483 26.5015 15.0483C27.0483 15.0483 27.4357 15.0483 27.6636 15.0483C28.1535 15.0483 28.6833 15.0939 29.2529 15.1851C29.834 15.2648 30.4093 15.4072 30.979 15.6123C31.5487 15.806 32.1012 16.0566 32.6367 16.3643C33.1722 16.6719 33.645 17.0479 34.0552 17.4922C34.4653 17.9365 34.79 18.4549 35.0293 19.0474C35.2799 19.6284 35.4053 20.2892 35.4053 21.0298C35.4053 21.2007 35.3825 21.4399 35.3369 21.7476C35.3027 22.0438 35.223 22.3913 35.0977 22.79C34.9723 23.1774 34.7843 23.5933 34.5337 24.0376C34.283 24.4705 33.9412 24.9092 33.5083 25.3535C33.0868 25.7865 32.5627 26.208 31.936 26.6182C31.3094 27.0283 30.5518 27.3929 29.6631 27.7119C28.7858 28.0309 27.7604 28.293 26.5869 28.498C25.4248 28.6917 24.0918 28.8 22.5879 28.8228C23.3285 29.381 24.1317 29.9792 24.9976 30.6172C25.8634 31.2438 26.7407 31.8249 27.6294 32.3604C28.5181 32.8844 29.3896 33.3231 30.2441 33.6763C31.0986 34.0181 31.8962 34.189 32.6367 34.189C32.9899 34.189 33.3659 34.1491 33.7646 34.0693C34.1748 33.9896 34.5736 33.8415 34.9609 33.625C35.3597 33.3971 35.7357 33.0952 36.0889 32.7192C36.4535 32.3319 36.7725 31.8306 37.0459 31.2153ZM30.4663 21.833C30.4663 21.4798 30.4378 21.1266 30.3809 20.7734C30.3239 20.4202 30.2043 20.0841 30.022 19.7651C29.8397 19.4461 29.5776 19.1442 29.2358 18.8594C28.894 18.5745 28.4326 18.3296 27.8516 18.1245C27.2819 17.9194 26.5755 17.7599 25.7324 17.646C24.8893 17.5207 23.881 17.458 22.7075 17.458C22.5252 17.458 22.3486 17.458 22.1777 17.458C22.0068 17.458 21.8302 17.4694 21.6479 17.4922L21.8188 26.6182C22.5366 26.6068 23.2487 26.5498 23.9551 26.4473C24.6615 26.3333 25.3337 26.1795 25.9717 25.9858C26.6097 25.7922 27.2021 25.5586 27.749 25.2852C28.3073 25.0117 28.7858 24.7041 29.1846 24.3623C29.5833 24.0091 29.8966 23.6217 30.1245 23.2002C30.3524 22.7786 30.4663 22.3229 30.4663 21.833Z" fill="white"/>
</svg>
